<svg width="141" height="21" viewBox="0 0 141 21" fill="none" xmlns="http://www.w3.org/2000/svg">
<path d="M15.8748 19.2503C15.7433 19.2508 15.6149 19.2098 15.508 19.1331L10.4842 15.4909L5.46037 19.1331C5.35304 19.211 5.22373 19.2526 5.09114 19.2522C4.95855 19.2517 4.82955 19.209 4.72279 19.1304C4.61603 19.0518 4.53704 18.9413 4.49724 18.8148C4.45744 18.6883 4.45889 18.5524 4.50138 18.4269L6.46076 12.6233L1.38264 9.14092C1.27264 9.06557 1.18962 8.95702 1.14571 8.83113C1.1018 8.70524 1.0993 8.56861 1.13857 8.4412C1.17784 8.31379 1.25682 8.20227 1.36399 8.12294C1.47115 8.04362 1.60087 8.00064 1.7342 8.00029H7.99904L9.88967 2.18193C9.93039 2.05632 10.0099 1.94683 10.1167 1.86917C10.2235 1.79152 10.3521 1.74969 10.4842 1.74969C10.6163 1.74969 10.7449 1.79152 10.8517 1.86917C10.9585 1.94683 11.038 2.05632 11.0787 2.18193L12.9694 8.00224H19.2342C19.3677 8.00218 19.4977 8.04486 19.6052 8.12403C19.7127 8.2032 19.792 8.31471 19.8315 8.44222C19.871 8.56973 19.8687 8.70654 19.8248 8.83262C19.7809 8.9587 19.6978 9.06743 19.5877 9.14287L14.5076 12.6233L16.4658 18.4253C16.4976 18.5192 16.5065 18.6194 16.4919 18.7174C16.4773 18.8155 16.4395 18.9087 16.3818 18.9893C16.324 19.0699 16.248 19.1356 16.1598 19.181C16.0717 19.2263 15.974 19.2501 15.8748 19.2503Z" fill="#FF859B"/>
<path fill-rule="evenodd" clip-rule="evenodd" d="M70.4842 1.75C70.7549 1.75 70.9949 1.92433 71.0786 2.18182L72.9695 8H79.2342C79.5081 8 79.7501 8.17835 79.8312 8.43998C79.9122 8.70161 79.8135 8.98555 79.5876 9.14046L74.5088 12.6231L76.467 18.4251C76.5539 18.6828 76.4643 18.9671 76.2453 19.1283C76.0264 19.2895 75.7283 19.2907 75.5081 19.1311L70.4842 15.4906L65.4603 19.1311C65.2401 19.2907 64.942 19.2895 64.723 19.1283C64.504 18.9671 64.4144 18.6828 64.5014 18.4251L66.4596 12.6231L61.3807 9.14046C61.1548 8.98555 61.0561 8.70161 61.1372 8.43998C61.2183 8.17835 61.4603 8 61.7342 8H67.9989L69.8898 2.18182C69.9735 1.92433 70.2134 1.75 70.4842 1.75ZM70.4842 4.39709L69.0473 8.81818C68.9636 9.07567 68.7237 9.25 68.4529 9.25H63.7508L67.5564 11.8595C67.787 12.0177 67.8845 12.3099 67.7951 12.5749L66.3116 16.9705L70.1174 14.2127C70.3362 14.0541 70.6321 14.0541 70.8509 14.2127L74.6568 16.9705L73.1732 12.5749C73.0838 12.3099 73.1813 12.0177 73.412 11.8595L77.2176 9.25H72.5154C72.2447 9.25 72.0047 9.07567 71.921 8.81818L70.4842 4.39709Z" fill="#FF859B"/>
<path fill-rule="evenodd" clip-rule="evenodd" d="M40.4842 1.75C40.7549 1.75 40.9949 1.92433 41.0786 2.18182L42.9695 8H49.2342C49.5081 8 49.7501 8.17835 49.8312 8.43998C49.9122 8.70161 49.8135 8.98555 49.5876 9.14046L44.5088 12.6231L46.467 18.4251C46.5539 18.6828 46.4643 18.9671 46.2453 19.1283C46.0264 19.2895 45.7283 19.2907 45.5081 19.1311L40.4842 15.4906L35.4603 19.1311C35.2401 19.2907 34.942 19.2895 34.723 19.1283C34.504 18.9671 34.4144 18.6828 34.5014 18.4251L36.4596 12.6231L31.3807 9.14046C31.1548 8.98555 31.0561 8.70161 31.1372 8.43998C31.2183 8.17835 31.4603 8 31.7342 8H37.9989L39.8898 2.18182C39.9735 1.92433 40.2134 1.75 40.4842 1.75ZM40.4842 4.39709L39.0473 8.81818C38.9636 9.07567 38.7237 9.25 38.4529 9.25H33.7508L37.5564 11.8595C37.787 12.0177 37.8845 12.3099 37.7951 12.5749L36.3116 16.9705L40.1174 14.2127C40.3362 14.0541 40.6321 14.0541 40.8509 14.2127L44.6568 16.9705L43.1732 12.5749C43.0838 12.3099 43.1813 12.0177 43.412 11.8595L47.2176 9.25H42.5154C42.2447 9.25 42.0047 9.07567 41.921 8.81818L40.4842 4.39709Z" fill="#FF859B"/>
<path fill-rule="evenodd" clip-rule="evenodd" d="M130.484 1.75C130.755 1.75 130.995 1.92433 131.079 2.18182L132.969 8H139.234C139.508 8 139.75 8.17835 139.831 8.43998C139.912 8.70161 139.814 8.98555 139.588 9.14046L134.509 12.6231L136.467 18.4251C136.554 18.6828 136.464 18.9671 136.245 19.1283C136.026 19.2895 135.728 19.2907 135.508 19.1311L130.484 15.4906L125.46 19.1311C125.24 19.2907 124.942 19.2895 124.723 19.1283C124.504 18.9671 124.414 18.6828 124.501 18.4251L126.46 12.6231L121.381 9.14046C121.155 8.98555 121.056 8.70161 121.137 8.43998C121.218 8.17835 121.46 8 121.734 8H127.999L129.89 2.18182C129.973 1.92433 130.213 1.75 130.484 1.75ZM130.484 4.39709L129.047 8.81818C128.964 9.07567 128.724 9.25 128.453 9.25H123.751L127.556 11.8595C127.787 12.0177 127.885 12.3099 127.795 12.5749L126.312 16.9705L130.117 14.2127C130.336 14.0541 130.632 14.0541 130.851 14.2127L134.657 16.9705L133.173 12.5749C133.084 12.3099 133.181 12.0177 133.412 11.8595L137.218 9.25H132.515C132.245 9.25 132.005 9.07567 131.921 8.81818L130.484 4.39709Z" fill="#FF859B"/>
<path fill-rule="evenodd" clip-rule="evenodd" d="M100.484 1.75C100.755 1.75 100.995 1.92433 101.079 2.18182L102.969 8H109.234C109.508 8 109.75 8.17835 109.831 8.43998C109.912 8.70161 109.814 8.98555 109.588 9.14046L104.509 12.6231L106.467 18.4251C106.554 18.6828 106.464 18.9671 106.245 19.1283C106.026 19.2895 105.728 19.2907 105.508 19.1311L100.484 15.4906L95.4603 19.1311C95.2401 19.2907 94.942 19.2895 94.723 19.1283C94.504 18.9671 94.4144 18.6828 94.5014 18.4251L96.4596 12.6231L91.3807 9.14046C91.1548 8.98555 91.0561 8.70161 91.1372 8.43998C91.2183 8.17835 91.4603 8 91.7342 8H97.9989L99.8898 2.18182C99.9735 1.92433 100.213 1.75 100.484 1.75ZM100.484 4.39709L99.0473 8.81818C98.9636 9.07567 98.7237 9.25 98.4529 9.25H93.7508L97.5564 11.8595C97.787 12.0177 97.8845 12.3099 97.7951 12.5749L96.3116 16.9705L100.117 14.2127C100.336 14.0541 100.632 14.0541 100.851 14.2127L104.657 16.9705L103.173 12.5749C103.084 12.3099 103.181 12.0177 103.412 11.8595L107.218 9.25H102.515C102.245 9.25 102.005 9.07567 101.921 8.81818L100.484 4.39709Z" fill="#FF859B"/>
</svg>
