<svg width="140" height="21" viewBox="0 0 140 21" fill="none" xmlns="http://www.w3.org/2000/svg">
<path d="M15.3907 19.2503C15.2591 19.2508 15.1308 19.2098 15.0239 19.1331L10.0001 15.4909L4.97624 19.1331C4.86891 19.211 4.7396 19.2526 4.60701 19.2522C4.47442 19.2517 4.34542 19.209 4.23866 19.1304C4.1319 19.0518 4.05291 18.9413 4.01311 18.8148C3.9733 18.6883 3.97476 18.5525 4.01725 18.4269L5.97663 12.6233L0.898504 9.14092C0.788508 9.06557 0.70549 8.95702 0.661579 8.83113C0.617668 8.70524 0.615165 8.56861 0.654436 8.4412C0.693707 8.31379 0.772694 8.20227 0.879856 8.12294C0.987018 8.04362 1.11674 8.00064 1.25007 8.00029H7.51491L9.40553 2.18193C9.44626 2.05632 9.52573 1.94683 9.63254 1.86917C9.73935 1.79152 9.86801 1.74969 10.0001 1.74969C10.1321 1.74969 10.2608 1.79152 10.3676 1.86917C10.4744 1.94683 10.5539 2.05632 10.5946 2.18193L12.4852 8.00224H18.7501C18.8836 8.00218 19.0136 8.04486 19.121 8.12403C19.2285 8.2032 19.3078 8.31471 19.3474 8.44222C19.3869 8.56973 19.3845 8.70654 19.3407 8.83262C19.2968 8.9587 19.2137 9.06743 19.1036 9.14287L14.0235 12.6233L15.9817 18.4253C16.0134 18.5192 16.0224 18.6194 16.0077 18.7174C15.9931 18.8155 15.9554 18.9087 15.8976 18.9893C15.8399 19.0699 15.7638 19.1356 15.6757 19.181C15.5875 19.2263 15.4898 19.2501 15.3907 19.2503Z" fill="#FF859B"/>
<path d="M75.3907 19.2503C75.2591 19.2508 75.1308 19.2098 75.0239 19.1331L70.0001 15.4909L64.9762 19.1331C64.8689 19.211 64.7396 19.2526 64.607 19.2522C64.4744 19.2517 64.3454 19.209 64.2387 19.1304C64.1319 19.0518 64.0529 18.9413 64.0131 18.8148C63.9733 18.6883 63.9748 18.5525 64.0173 18.4269L65.9766 12.6233L60.8985 9.14092C60.7885 9.06557 60.7055 8.95702 60.6616 8.83113C60.6177 8.70524 60.6152 8.56861 60.6544 8.4412C60.6937 8.31379 60.7727 8.20227 60.8799 8.12294C60.987 8.04362 61.1167 8.00064 61.2501 8.00029H67.5149L69.4055 2.18193C69.4463 2.05632 69.5257 1.94683 69.6325 1.86917C69.7394 1.79152 69.868 1.74969 70.0001 1.74969C70.1321 1.74969 70.2608 1.79152 70.3676 1.86917C70.4744 1.94683 70.5539 2.05632 70.5946 2.18193L72.4852 8.00224H78.7501C78.8836 8.00218 79.0136 8.04486 79.121 8.12403C79.2285 8.2032 79.3078 8.31471 79.3474 8.44222C79.3869 8.56973 79.3845 8.70654 79.3407 8.83262C79.2968 8.9587 79.2137 9.06743 79.1036 9.14287L74.0235 12.6233L75.9817 18.4253C76.0134 18.5192 76.0224 18.6194 76.0077 18.7174C75.9931 18.8155 75.9554 18.9087 75.8976 18.9893C75.8399 19.0699 75.7638 19.1356 75.6757 19.181C75.5875 19.2263 75.4898 19.2501 75.3907 19.2503Z" fill="#FF859B"/>
<path d="M105.391 19.2503C105.259 19.2508 105.131 19.2098 105.024 19.1331L100 15.4909L94.9762 19.1331C94.8689 19.211 94.7396 19.2526 94.607 19.2522C94.4744 19.2517 94.3454 19.209 94.2387 19.1304C94.1319 19.0518 94.0529 18.9413 94.0131 18.8148C93.9733 18.6883 93.9748 18.5525 94.0173 18.4269L95.9766 12.6233L90.8985 9.14092C90.7885 9.06557 90.7055 8.95702 90.6616 8.83113C90.6177 8.70524 90.6152 8.56861 90.6544 8.4412C90.6937 8.31379 90.7727 8.20227 90.8799 8.12294C90.987 8.04362 91.1167 8.00064 91.2501 8.00029H97.5149L99.4055 2.18193C99.4463 2.05632 99.5257 1.94683 99.6325 1.86917C99.7394 1.79152 99.868 1.74969 100 1.74969C100.132 1.74969 100.261 1.79152 100.368 1.86917C100.474 1.94683 100.554 2.05632 100.595 2.18193L102.485 8.00224H108.75C108.884 8.00218 109.014 8.04486 109.121 8.12403C109.229 8.2032 109.308 8.31471 109.347 8.44222C109.387 8.56973 109.385 8.70654 109.341 8.83262C109.297 8.9587 109.214 9.06743 109.104 9.14287L104.024 12.6233L105.982 18.4253C106.013 18.5192 106.022 18.6194 106.008 18.7174C105.993 18.8155 105.955 18.9087 105.898 18.9893C105.84 19.0699 105.764 19.1356 105.676 19.181C105.588 19.2263 105.49 19.2501 105.391 19.2503Z" fill="#FF859B"/>
<path d="M45.3907 19.2503C45.2591 19.2508 45.1308 19.2098 45.0239 19.1331L40.0001 15.4909L34.9762 19.1331C34.8689 19.211 34.7396 19.2526 34.607 19.2522C34.4744 19.2517 34.3454 19.209 34.2387 19.1304C34.1319 19.0518 34.0529 18.9413 34.0131 18.8148C33.9733 18.6883 33.9748 18.5525 34.0173 18.4269L35.9766 12.6233L30.8985 9.14092C30.7885 9.06557 30.7055 8.95702 30.6616 8.83113C30.6177 8.70524 30.6152 8.56861 30.6544 8.4412C30.6937 8.31379 30.7727 8.20227 30.8799 8.12294C30.987 8.04362 31.1167 8.00064 31.2501 8.00029H37.5149L39.4055 2.18193C39.4463 2.05632 39.5257 1.94683 39.6325 1.86917C39.7394 1.79152 39.868 1.74969 40.0001 1.74969C40.1321 1.74969 40.2608 1.79152 40.3676 1.86917C40.4744 1.94683 40.5539 2.05632 40.5946 2.18193L42.4852 8.00224H48.7501C48.8836 8.00218 49.0136 8.04486 49.121 8.12403C49.2285 8.2032 49.3078 8.31471 49.3474 8.44222C49.3869 8.56973 49.3845 8.70654 49.3407 8.83262C49.2968 8.9587 49.2137 9.06743 49.1036 9.14287L44.0235 12.6233L45.9817 18.4253C46.0134 18.5192 46.0224 18.6194 46.0077 18.7174C45.9931 18.8155 45.9554 18.9087 45.8976 18.9893C45.8399 19.0699 45.7638 19.1356 45.6757 19.181C45.5875 19.2263 45.4898 19.2501 45.3907 19.2503Z" fill="#FF859B"/>
<path d="M135.391 19.2503C135.259 19.2508 135.131 19.2098 135.024 19.1331L130 15.4909L124.976 19.1331C124.869 19.211 124.74 19.2526 124.607 19.2522C124.474 19.2517 124.345 19.209 124.239 19.1304C124.132 19.0518 124.053 18.9413 124.013 18.8148C123.973 18.6883 123.975 18.5524 124.017 18.4269L125.977 12.6233L120.899 9.14092C120.789 9.06557 120.705 8.95702 120.662 8.83113C120.618 8.70524 120.615 8.56861 120.654 8.4412C120.694 8.31379 120.773 8.20227 120.88 8.12294C120.987 8.04362 121.117 8.00064 121.25 8.00029H127.515L129.406 2.18193C129.446 2.05632 129.526 1.94683 129.633 1.86917C129.739 1.79152 129.868 1.74969 130 1.74969C130.132 1.74969 130.261 1.79152 130.368 1.86917C130.474 1.94683 130.554 2.05632 130.595 2.18193L132.485 8.00224H138.75C138.884 8.00218 139.014 8.04486 139.121 8.12403C139.229 8.2032 139.308 8.31471 139.347 8.44222C139.387 8.56973 139.385 8.70654 139.341 8.83262C139.297 8.9587 139.214 9.06743 139.104 9.14287L134.024 12.6233L135.982 18.4253C136.013 18.5192 136.022 18.6194 136.008 18.7174C135.993 18.8155 135.955 18.9087 135.898 18.9893C135.84 19.0699 135.764 19.1356 135.676 19.181C135.588 19.2263 135.49 19.2501 135.391 19.2503Z" fill="#FF859B"/>
</svg>
